<svg version="1.1" id="Layer_1" xmlns="http://www.w3.org/2000/svg" xmlns:xlink="http://www.w3.org/1999/xlink" x="0px" y="0px"
	 width="100%" viewBox="0 0 1080 1080" enable-background="new 0 0 1080 1080" xml:space="preserve">
<path fill="#FFFFFF" opacity="1.000000" stroke="none" 
	d="
M567.000000,1081.000000 
	C378.021759,1081.000000 189.543503,1081.000000 1.032628,1081.000000 
	C1.032628,721.063293 1.032628,361.126587 1.032628,1.094941 
	C360.895172,1.094941 720.790344,1.094941 1080.842773,1.094941 
	C1080.842773,360.999939 1080.842773,720.999939 1080.842773,1081.000000 
	C909.792786,1081.000000 738.646423,1081.000000 567.000000,1081.000000 
M323.028381,600.497009 
	C319.667175,613.751038 314.265778,625.730469 304.386322,635.741394 
	C293.776154,646.492676 285.112183,659.551758 271.029297,666.129395 
	C258.718689,671.879395 245.768982,676.297302 232.975113,680.956299 
	C228.654007,682.529907 223.987320,683.598328 219.406845,683.942139 
	C194.188812,685.834961 172.275177,677.393494 155.861710,658.698853 
	C142.435455,643.406616 131.307358,626.039551 119.758476,609.182617 
	C114.714424,601.820312 110.359032,593.753113 107.079613,585.457031 
	C95.441444,556.015442 86.037674,525.856262 82.836784,494.194458 
	C80.716057,473.217102 79.318253,452.155304 78.122581,431.101471 
	C77.662582,423.001801 78.440720,414.803070 79.045273,406.678558 
	C79.908127,395.082794 80.472527,383.407593 82.322433,371.953308 
	C87.825264,337.880707 98.330650,305.405609 114.969666,275.032318 
	C123.657616,259.173065 133.740097,244.297913 146.944077,231.865433 
	C163.740601,216.050293 182.424988,202.752350 202.743301,191.773849 
	C216.129593,184.540909 229.753036,177.433594 245.260437,177.012100 
	C260.496674,176.597992 275.806549,177.175049 291.024261,178.202713 
	C313.559601,179.724564 336.058289,181.862869 358.541443,184.057693 
	C373.275604,185.496033 387.963684,187.588943 401.654633,193.689163 
	C409.988190,197.402313 418.106415,201.598816 427.375031,206.088623 
	C433.180817,198.324661 439.505676,190.428741 445.168793,182.083786 
	C448.597534,177.031357 447.597778,174.059387 441.969238,171.206161 
	C433.372192,166.848099 424.862610,161.853790 415.718628,159.147614 
	C402.091675,155.114746 388.069427,151.899429 373.990448,150.029785 
	C350.957367,146.971085 327.754425,145.152512 304.600983,143.055649 
	C293.012421,142.006149 281.357208,141.701889 269.763458,140.698563 
	C249.937073,138.982773 230.395889,140.395172 211.917206,147.902145 
	C199.483063,152.953506 187.593842,159.446732 175.753860,165.837753 
	C155.248184,176.906372 137.243439,191.510483 120.476234,207.498672 
	C103.950928,223.256210 91.602524,242.244949 80.927559,262.362366 
	C55.058086,311.114441 43.424374,363.484009 42.339176,418.244629 
	C41.928425,438.971710 43.840916,459.757507 44.996403,480.499695 
	C46.446545,506.531372 51.659771,531.861816 60.024212,556.548096 
	C66.574638,575.880615 70.213165,596.314575 81.140022,613.998962 
	C91.201218,630.282410 101.322220,646.541382 111.914444,662.480469 
	C121.671715,677.163208 133.793030,689.872009 148.549332,699.558777 
	C177.659225,718.667969 208.904816,725.470520 243.145157,715.239685 
	C263.828735,709.059570 284.483246,702.803345 301.234436,688.623535 
	C313.640961,678.121521 324.962646,666.337891 336.807220,655.087585 
	C336.629425,654.919922 336.931335,655.080627 337.032837,655.324707 
	C337.287659,655.937378 337.531555,656.574341 337.640778,657.224915 
	C340.977020,677.095886 347.898346,696.371460 346.177887,717.085938 
	C345.365265,726.869324 353.513031,734.434692 363.286285,734.991638 
	C372.036591,735.490295 381.547058,728.183167 381.762451,719.521118 
	C382.029297,708.794006 382.069977,697.867126 380.370361,687.322815 
	C375.828339,659.143616 370.295563,631.124268 365.174255,603.038208 
	C363.574982,594.267456 363.687653,585.646179 366.030609,576.891602 
	C367.953339,569.707336 369.180817,562.257202 369.888275,554.845886 
	C371.009033,543.105042 371.151550,531.271790 372.233826,519.526062 
	C373.519806,505.569733 368.854187,494.140900 358.960785,484.530182 
	C357.725616,483.330322 356.202179,481.857788 355.936615,480.317688 
	C353.412964,465.682678 338.283997,456.939117 319.941895,458.006134 
	C313.236725,458.396179 306.599548,460.546661 300.011017,462.209625 
	C290.364380,464.644501 280.918884,468.175171 271.147614,469.734009 
	C261.302155,471.304718 253.905304,477.148743 253.048828,486.552582 
	C252.225845,495.588684 258.149109,504.141937 267.693481,505.754364 
	C280.770905,507.963623 293.995178,509.389862 307.200226,510.716949 
	C313.015564,511.301392 318.938446,510.815399 325.186066,510.815399 
	C324.606781,512.225952 323.830170,513.526123 323.539948,514.927063 
	C322.341217,520.712891 320.124451,526.591797 320.431793,532.321228 
	C321.034882,543.563354 323.131195,554.721497 324.501587,565.927551 
	C325.885620,577.245239 328.096863,588.615479 323.028381,600.497009 
M863.656494,478.086029 
	C863.468018,472.275909 863.105225,466.465240 863.123657,460.655762 
	C863.179199,443.135590 858.684753,426.464447 854.023254,409.793518 
	C851.162842,399.563660 844.485291,392.987152 835.106140,388.583405 
	C823.467651,383.118744 810.926147,382.586517 798.522156,382.222015 
	C779.704956,381.669006 760.861084,382.022766 742.028503,382.000244 
	C732.782898,381.989197 723.537231,381.998352 713.784485,381.998352 
	C715.768433,376.760529 717.716736,371.319397 719.879333,365.964813 
	C725.608398,351.779297 730.534485,337.068237 740.384216,325.084625 
	C747.974365,315.850128 756.369141,307.231384 764.853088,298.788025 
	C776.577576,287.119629 785.740845,273.806458 792.565308,258.797821 
	C795.859009,251.554337 796.615906,244.039581 794.552673,236.424332 
	C791.768250,226.147354 783.136292,221.888290 774.120544,220.289825 
	C762.249817,218.185196 750.030640,217.629730 737.936462,217.289474 
	C713.314331,216.596771 688.645691,216.187225 664.209045,220.146683 
	C653.927063,221.812683 643.681702,223.897491 633.586975,226.452759 
	C627.697815,227.943466 623.354980,232.385559 623.297302,238.630417 
	C623.159485,253.553665 623.786804,268.483978 624.124084,284.294312 
	C632.483582,284.541687 640.247986,284.926117 648.014221,284.967255 
	C661.815979,285.040344 663.765320,282.389740 659.914368,269.347412 
	C656.156189,256.619598 658.198914,253.869095 671.568176,253.837219 
	C676.066589,253.826492 680.566956,253.958847 685.063782,254.105408 
	C691.541138,254.316528 698.018555,254.862579 704.491394,254.799545 
	C718.803833,254.660187 733.113159,254.217621 747.424438,253.934525 
	C749.184021,253.899704 750.947998,254.083282 754.008911,254.226379 
	C751.733521,257.837769 750.374573,260.883209 748.242737,263.224884 
	C738.828735,273.565247 729.157898,283.671021 719.646606,293.923492 
	C711.002380,303.241302 703.197205,313.182922 698.225220,325.012939 
	C692.038513,339.733154 685.423462,354.312378 680.085449,369.340363 
	C673.363953,388.263672 667.344360,407.464142 661.820068,426.773346 
	C659.000427,436.629028 668.188965,446.874268 678.495850,447.095490 
	C687.174988,447.281738 692.979431,442.882111 697.046448,435.810974 
	C702.486267,426.352936 710.252991,420.641235 721.290100,419.669403 
	C727.571838,419.116302 733.839294,418.402222 740.119873,417.834442 
	C759.355896,416.095581 778.584412,415.337891 797.817078,418.010345 
	C811.432495,419.902222 823.385925,429.730133 825.536804,442.522278 
	C827.154297,452.142487 827.842773,462.045349 827.691284,471.802917 
	C827.521606,482.737030 826.156372,493.673706 824.923828,504.565399 
	C822.959900,521.920593 816.789490,536.267639 799.588196,544.596558 
	C784.998169,551.661072 770.065735,558.601990 758.285645,570.403992 
	C756.953491,571.738647 754.886597,572.733337 753.013916,573.069275 
	C742.913879,574.881348 732.813293,576.852966 722.625000,577.965454 
	C711.719421,579.156189 701.498657,576.830078 692.526123,569.913757 
	C681.864502,561.695312 670.840942,553.941895 660.273438,545.607605 
	C651.073425,538.351746 644.265015,529.217163 641.025024,517.723877 
	C640.711548,516.612000 640.177673,515.555786 639.685852,514.501770 
	C637.656494,510.152893 634.364014,507.515289 629.737366,509.984344 
	C622.774841,513.699890 615.602539,517.424866 609.611145,522.447998 
	C603.189209,527.832092 602.985840,533.223145 608.159424,540.022583 
	C615.198730,549.274109 622.026611,559.007629 630.588440,566.707092 
	C644.778320,579.467712 660.030029,591.101685 675.307739,602.580383 
	C686.670288,611.117432 699.803894,615.294617 714.218140,613.861511 
	C724.620483,612.827209 734.948425,610.887573 745.365479,610.199097 
	C757.458252,609.399841 768.704712,606.174744 778.849915,599.816162 
	C795.904053,589.127319 812.655396,577.955322 829.534790,566.987488 
	C845.591370,556.554321 854.577759,541.341675 857.818604,522.920593 
	C860.373657,508.397827 861.615295,493.644012 863.656494,478.086029 
M486.999512,280.404358 
	C497.892944,292.233521 504.125305,305.878082 504.108948,322.258698 
	C504.080200,351.025208 498.288055,379.052673 493.400330,407.174957 
	C486.918579,444.468842 474.959442,480.315521 462.673981,515.959045 
	C452.535583,545.373352 440.903656,574.292419 422.758148,600.003052 
	C413.815735,612.673645 411.210327,626.280701 416.539917,641.118591 
	C418.412781,646.332703 421.998962,649.516235 427.501404,649.953308 
	C438.264801,650.808289 449.043671,651.861938 459.826996,652.003113 
	C502.616455,652.563354 545.397461,651.980164 588.084229,648.745728 
	C593.689941,648.320984 599.202637,645.683655 604.584106,643.617065 
	C608.480042,642.120972 608.639526,639.068970 606.230286,635.958557 
	C596.074951,622.847412 583.220947,613.537598 566.639648,611.144043 
	C545.083435,608.032471 523.513062,610.688049 501.957520,612.491821 
	C487.268890,613.721069 472.504730,614.047058 456.762634,614.826965 
	C457.973267,612.454529 458.505066,611.299072 459.133606,610.198975 
	C463.507050,602.544128 468.390106,595.136597 472.206787,587.214844 
	C494.023499,541.932190 509.417175,494.302216 521.721985,445.739502 
	C527.660767,422.301483 530.902161,398.178955 535.335632,374.360901 
	C540.429260,346.996216 540.930786,319.664856 536.095154,292.123444 
	C532.719482,272.896881 525.267822,256.369324 508.582794,245.489609 
	C503.978302,242.487213 497.626038,240.184830 492.316437,240.604767 
	C474.312469,242.028748 456.322662,244.257584 438.506287,247.245163 
	C421.882812,250.032715 408.646942,259.499786 404.671600,275.972229 
	C399.865326,295.887482 398.176178,316.558441 395.302490,336.925507 
	C395.171661,337.852875 396.502014,339.749084 397.416351,339.942322 
	C405.845123,341.723480 414.274902,343.892578 422.818237,344.630768 
	C431.708130,345.398895 433.923187,342.563354 434.120819,333.599884 
	C434.362640,322.629791 434.596680,311.657593 435.034576,300.694305 
	C435.558533,287.575836 438.887817,283.543884 450.549530,281.310364 
	C457.866394,279.909027 465.179810,278.489319 472.499664,277.103729 
	C477.526184,276.152313 482.442047,275.840515 486.999512,280.404358 
z"/>
<path fill="#88D2D2" opacity="1.000000" stroke="none" 
	d="
M323.129303,600.101868 
	C328.096863,588.615479 325.885620,577.245239 324.501587,565.927551 
	C323.131195,554.721497 321.034882,543.563354 320.431793,532.321228 
	C320.124451,526.591797 322.341217,520.712891 323.539948,514.927063 
	C323.830170,513.526123 324.606781,512.225952 325.186066,510.815399 
	C318.938446,510.815399 313.015564,511.301392 307.200226,510.716949 
	C293.995178,509.389862 280.770905,507.963623 267.693481,505.754364 
	C258.149109,504.141937 252.225845,495.588684 253.048828,486.552582 
	C253.905304,477.148743 261.302155,471.304718 271.147614,469.734009 
	C280.918884,468.175171 290.364380,464.644501 300.011017,462.209625 
	C306.599548,460.546661 313.236725,458.396179 319.941895,458.006134 
	C338.283997,456.939117 353.412964,465.682678 355.936615,480.317688 
	C356.202179,481.857788 357.725616,483.330322 358.960785,484.530182 
	C368.854187,494.140900 373.519806,505.569733 372.233826,519.526062 
	C371.151550,531.271790 371.009033,543.105042 369.888275,554.845886 
	C369.180817,562.257202 367.953339,569.707336 366.030609,576.891602 
	C363.687653,585.646179 363.574982,594.267456 365.174255,603.038208 
	C370.295563,631.124268 375.828339,659.143616 380.370361,687.322815 
	C382.069977,697.867126 382.029297,708.794006 381.762451,719.521118 
	C381.547058,728.183167 372.036591,735.490295 363.286285,734.991638 
	C353.513031,734.434692 345.365265,726.869324 346.177887,717.085938 
	C347.898346,696.371460 340.977020,677.095886 337.640778,657.224915 
	C337.531555,656.574341 337.287659,655.937378 337.032837,655.324707 
	C336.931335,655.080627 336.629425,654.919922 336.807220,655.087585 
	C324.962646,666.337891 313.640961,678.121521 301.234436,688.623535 
	C284.483246,702.803345 263.828735,709.059570 243.145157,715.239685 
	C208.904816,725.470520 177.659225,718.667969 148.549332,699.558777 
	C133.793030,689.872009 121.671715,677.163208 111.914444,662.480469 
	C101.322220,646.541382 91.201218,630.282410 81.140022,613.998962 
	C70.213165,596.314575 66.574638,575.880615 60.024212,556.548096 
	C51.659771,531.861816 46.446545,506.531372 44.996403,480.499695 
	C43.840916,459.757507 41.928425,438.971710 42.339176,418.244629 
	C43.424374,363.484009 55.058086,311.114441 80.927559,262.362366 
	C91.602524,242.244949 103.950928,223.256210 120.476234,207.498672 
	C137.243439,191.510483 155.248184,176.906372 175.753860,165.837753 
	C187.593842,159.446732 199.483063,152.953506 211.917206,147.902145 
	C230.395889,140.395172 249.937073,138.982773 269.763458,140.698563 
	C281.357208,141.701889 293.012421,142.006149 304.600983,143.055649 
	C327.754425,145.152512 350.957367,146.971085 373.990448,150.029785 
	C388.069427,151.899429 402.091675,155.114746 415.718628,159.147614 
	C424.862610,161.853790 433.372192,166.848099 441.969238,171.206161 
	C447.597778,174.059387 448.597534,177.031357 445.168793,182.083786 
	C439.505676,190.428741 433.180817,198.324661 427.375031,206.088623 
	C418.106415,201.598816 409.988190,197.402313 401.654633,193.689163 
	C387.963684,187.588943 373.275604,185.496033 358.541443,184.057693 
	C336.058289,181.862869 313.559601,179.724564 291.024261,178.202713 
	C275.806549,177.175049 260.496674,176.597992 245.260437,177.012100 
	C229.753036,177.433594 216.129593,184.540909 202.743301,191.773849 
	C182.424988,202.752350 163.740601,216.050293 146.944077,231.865433 
	C133.740097,244.297913 123.657616,259.173065 114.969666,275.032318 
	C98.330650,305.405609 87.825264,337.880707 82.322433,371.953308 
	C80.472527,383.407593 79.908127,395.082794 79.045273,406.678558 
	C78.440720,414.803070 77.662582,423.001801 78.122581,431.101471 
	C79.318253,452.155304 80.716057,473.217102 82.836784,494.194458 
	C86.037674,525.856262 95.441444,556.015442 107.079613,585.457031 
	C110.359032,593.753113 114.714424,601.820312 119.758476,609.182617 
	C131.307358,626.039551 142.435455,643.406616 155.861710,658.698853 
	C172.275177,677.393494 194.188812,685.834961 219.406845,683.942139 
	C223.987320,683.598328 228.654007,682.529907 232.975113,680.956299 
	C245.768982,676.297302 258.718689,671.879395 271.029297,666.129395 
	C285.112183,659.551758 293.776154,646.492676 304.386322,635.741394 
	C314.265778,625.730469 319.667175,613.751038 323.129303,600.101868 
z"/>
<path fill="#88D2D2" opacity="1.000000" stroke="none" 
	d="
M863.548340,478.539429 
	C861.615295,493.644012 860.373657,508.397827 857.818604,522.920593 
	C854.577759,541.341675 845.591370,556.554321 829.534790,566.987488 
	C812.655396,577.955322 795.904053,589.127319 778.849915,599.816162 
	C768.704712,606.174744 757.458252,609.399841 745.365479,610.199097 
	C734.948425,610.887573 724.620483,612.827209 714.218140,613.861511 
	C699.803894,615.294617 686.670288,611.117432 675.307739,602.580383 
	C660.030029,591.101685 644.778320,579.467712 630.588440,566.707092 
	C622.026611,559.007629 615.198730,549.274109 608.159424,540.022583 
	C602.985840,533.223145 603.189209,527.832092 609.611145,522.447998 
	C615.602539,517.424866 622.774841,513.699890 629.737366,509.984344 
	C634.364014,507.515289 637.656494,510.152893 639.685852,514.501770 
	C640.177673,515.555786 640.711548,516.612000 641.025024,517.723877 
	C644.265015,529.217163 651.073425,538.351746 660.273438,545.607605 
	C670.840942,553.941895 681.864502,561.695312 692.526123,569.913757 
	C701.498657,576.830078 711.719421,579.156189 722.625000,577.965454 
	C732.813293,576.852966 742.913879,574.881348 753.013916,573.069275 
	C754.886597,572.733337 756.953491,571.738647 758.285645,570.403992 
	C770.065735,558.601990 784.998169,551.661072 799.588196,544.596558 
	C816.789490,536.267639 822.959900,521.920593 824.923828,504.565399 
	C826.156372,493.673706 827.521606,482.737030 827.691284,471.802917 
	C827.842773,462.045349 827.154297,452.142487 825.536804,442.522278 
	C823.385925,429.730133 811.432495,419.902222 797.817078,418.010345 
	C778.584412,415.337891 759.355896,416.095581 740.119873,417.834442 
	C733.839294,418.402222 727.571838,419.116302 721.290100,419.669403 
	C710.252991,420.641235 702.486267,426.352936 697.046448,435.810974 
	C692.979431,442.882111 687.174988,447.281738 678.495850,447.095490 
	C668.188965,446.874268 659.000427,436.629028 661.820068,426.773346 
	C667.344360,407.464142 673.363953,388.263672 680.085449,369.340363 
	C685.423462,354.312378 692.038513,339.733154 698.225220,325.012939 
	C703.197205,313.182922 711.002380,303.241302 719.646606,293.923492 
	C729.157898,283.671021 738.828735,273.565247 748.242737,263.224884 
	C750.374573,260.883209 751.733521,257.837769 754.008911,254.226379 
	C750.947998,254.083282 749.184021,253.899704 747.424438,253.934525 
	C733.113159,254.217621 718.803833,254.660187 704.491394,254.799545 
	C698.018555,254.862579 691.541138,254.316528 685.063782,254.105408 
	C680.566956,253.958847 676.066589,253.826492 671.568176,253.837219 
	C658.198914,253.869095 656.156189,256.619598 659.914368,269.347412 
	C663.765320,282.389740 661.815979,285.040344 648.014221,284.967255 
	C640.247986,284.926117 632.483582,284.541687 624.124084,284.294312 
	C623.786804,268.483978 623.159485,253.553665 623.297302,238.630417 
	C623.354980,232.385559 627.697815,227.943466 633.586975,226.452759 
	C643.681702,223.897491 653.927063,221.812683 664.209045,220.146683 
	C688.645691,216.187225 713.314331,216.596771 737.936462,217.289474 
	C750.030640,217.629730 762.249817,218.185196 774.120544,220.289825 
	C783.136292,221.888290 791.768250,226.147354 794.552673,236.424332 
	C796.615906,244.039581 795.859009,251.554337 792.565308,258.797821 
	C785.740845,273.806458 776.577576,287.119629 764.853088,298.788025 
	C756.369141,307.231384 747.974365,315.850128 740.384216,325.084625 
	C730.534485,337.068237 725.608398,351.779297 719.879333,365.964813 
	C717.716736,371.319397 715.768433,376.760529 713.784485,381.998352 
	C723.537231,381.998352 732.782898,381.989197 742.028503,382.000244 
	C760.861084,382.022766 779.704956,381.669006 798.522156,382.222015 
	C810.926147,382.586517 823.467651,383.118744 835.106140,388.583405 
	C844.485291,392.987152 851.162842,399.563660 854.023254,409.793518 
	C858.684753,426.464447 863.179199,443.135590 863.123657,460.655762 
	C863.105225,466.465240 863.468018,472.275909 863.548340,478.539429 
z"/>
<path fill="#88D2D2" opacity="1.000000" stroke="none" 
	d="
M486.737976,280.150024 
	C482.442047,275.840515 477.526184,276.152313 472.499664,277.103729 
	C465.179810,278.489319 457.866394,279.909027 450.549530,281.310364 
	C438.887817,283.543884 435.558533,287.575836 435.034576,300.694305 
	C434.596680,311.657593 434.362640,322.629791 434.120819,333.599884 
	C433.923187,342.563354 431.708130,345.398895 422.818237,344.630768 
	C414.274902,343.892578 405.845123,341.723480 397.416351,339.942322 
	C396.502014,339.749084 395.171661,337.852875 395.302490,336.925507 
	C398.176178,316.558441 399.865326,295.887482 404.671600,275.972229 
	C408.646942,259.499786 421.882812,250.032715 438.506287,247.245163 
	C456.322662,244.257584 474.312469,242.028748 492.316437,240.604767 
	C497.626038,240.184830 503.978302,242.487213 508.582794,245.489609 
	C525.267822,256.369324 532.719482,272.896881 536.095154,292.123444 
	C540.930786,319.664856 540.429260,346.996216 535.335632,374.360901 
	C530.902161,398.178955 527.660767,422.301483 521.721985,445.739502 
	C509.417175,494.302216 494.023499,541.932190 472.206787,587.214844 
	C468.390106,595.136597 463.507050,602.544128 459.133606,610.198975 
	C458.505066,611.299072 457.973267,612.454529 456.762634,614.826965 
	C472.504730,614.047058 487.268890,613.721069 501.957520,612.491821 
	C523.513062,610.688049 545.083435,608.032471 566.639648,611.144043 
	C583.220947,613.537598 596.074951,622.847412 606.230286,635.958557 
	C608.639526,639.068970 608.480042,642.120972 604.584106,643.617065 
	C599.202637,645.683655 593.689941,648.320984 588.084229,648.745728 
	C545.397461,651.980164 502.616455,652.563354 459.826996,652.003113 
	C449.043671,651.861938 438.264801,650.808289 427.501404,649.953308 
	C421.998962,649.516235 418.412781,646.332703 416.539917,641.118591 
	C411.210327,626.280701 413.815735,612.673645 422.758148,600.003052 
	C440.903656,574.292419 452.535583,545.373352 462.673981,515.959045 
	C474.959442,480.315521 486.918579,444.468842 493.400330,407.174957 
	C498.288055,379.052673 504.080200,351.025208 504.108948,322.258698 
	C504.125305,305.878082 497.892944,292.233521 486.737976,280.150024 
z"/>
</svg>